<svg xmlns="http://www.w3.org/2000/svg" version="1.1" xmlns:xlink="http://www.w3.org/1999/xlink" xmlns:svgjs="http://svgjs.dev/svgjs" width="1500" height="348" viewBox="0 0 1500 348"><g transform="matrix(1,0,0,1,-0.9090909090909918,-1.4608395200355915)"><svg viewBox="0 0 396 92" data-background-color="#f5f5f5" preserveAspectRatio="xMidYMid meet" height="348" width="1500" xmlns="http://www.w3.org/2000/svg" xmlns:xlink="http://www.w3.org/1999/xlink"><g id="tight-bounds" transform="matrix(1,0,0,1,0.2400000000000091,0.3861989535726309)"><svg viewBox="0 0 395.52 91.22760209285472" height="91.22760209285472" width="395.52"><g><svg viewBox="0 0 541.8474099907537 124.97835738693466" height="91.22760209285472" width="395.52"><g transform="matrix(1,0,0,1,146.32740999075375,17.272696281407036)"><svg viewBox="0 0 395.52 90.43296482412059" height="90.43296482412059" width="395.52"><g id="textblocktransform"><svg viewBox="0 0 395.52 90.43296482412059" height="90.43296482412059" width="395.52" id="textblock"><g><svg viewBox="0 0 395.52 90.43296482412059" height="90.43296482412059" width="395.52"><g transform="matrix(1,0,0,1,0,0)"><svg width="395.52" viewBox="-0.4 -36.75 198.98000000000002 45.5" height="90.43296482412059" data-palette-color="#ff6f3c"><path d="M12.45-25.95L18.6-25.95 18.6-20.35 12.45-20.35 12.45-9.65Q12.45-6.05 15.7-6.05L15.7-6.05Q17.6-6.05 18.7-6.8L18.7-6.8 20.2-0.7Q17.75 0.35 13.05 0.35L13.05 0.35Q7.25 0.35 5.3-2.15L5.3-2.15Q4.45-3.25 4.2-4.55 3.95-5.85 3.95-8.85L3.95-8.85 3.95-20.35-0.4-20.35-0.4-25.95 3.95-25.95 3.95-31.45 12.45-35.9 12.45-25.95ZM40.3-26.1L40.3-26.1 40.25-19.1Q38.4-19.65 36.75-19.65L36.75-19.65Q30.25-19.65 30.25-11.3L30.25-11.3 30.25 0 21.75 0 21.75-25.95 29.95-25.95 29.95-21.5Q31.45-26.65 38.3-26.65L38.3-26.65Q39.1-26.65 40.3-26.1ZM43.7-25.95L52.2-25.95 52.2 0 43.7 0 43.7-25.95ZM47.95-36.75L47.95-36.75Q49.55-36.75 50.7-35.63 51.85-34.5 51.85-32.85L51.85-32.85Q51.85-31.25 50.7-30.1 49.55-28.95 47.95-28.95L47.95-28.95Q46.3-28.95 45.17-30.1 44.05-31.25 44.05-32.85L44.05-32.85Q44.05-34.5 45.17-35.63 46.3-36.75 47.95-36.75ZM58.04-25.95L66.24-25.95 66.24-22.9Q68.99-26.65 73.84-26.65L73.84-26.65Q79.29-26.65 82.44-22.35L82.44-22.35Q85.19-18.6 85.19-12.8L85.19-12.8Q85.19-6.25 81.74-2.5L81.74-2.5Q78.79 0.7 74.14 0.7L74.14 0.7Q69.39 0.7 66.54-3L66.54-3 66.54 8.75 58.04 8.75 58.04-25.95ZM71.44-19.7L71.44-19.7Q68.99-19.7 67.64-17.88 66.29-16.05 66.29-12.75L66.29-12.75Q66.29-9.5 67.64-7.7 68.99-5.9 71.44-5.9L71.44-5.9Q76.54-5.9 76.54-12.75L76.54-12.75Q76.54-19.7 71.44-19.7ZM119.49-25.95L128.19-25.95 120.09 0 111.44 0 108.89-9.9Q107.99-13.35 107.24-18.5L107.24-18.5Q106.39-13.1 105.59-9.9L105.59-9.9 103.14 0 94.49 0 86.34-25.95 95.14-25.95 97.44-17.35Q98.49-13.45 99.44-7.5L99.44-7.5Q100.44-13.75 101.39-17.7L101.39-17.7 103.34-25.95 111.24-25.95 113.44-16.8Q114.54-12.35 115.24-7.5L115.24-7.5Q116.09-13.1 117.04-16.65L117.04-16.65 119.49-25.95ZM130.84-25.95L139.34-25.95 139.34 0 130.84 0 130.84-25.95ZM135.09-36.75L135.09-36.75Q136.69-36.75 137.84-35.63 138.99-34.5 138.99-32.85L138.99-32.85Q138.99-31.25 137.84-30.1 136.69-28.95 135.09-28.95L135.09-28.95Q133.44-28.95 132.31-30.1 131.19-31.25 131.19-32.85L131.19-32.85Q131.19-34.5 132.31-35.63 133.44-36.75 135.09-36.75ZM167.44-18.65L167.44-18.65 159.59-18.65Q159.39-20.15 158.41-20.78 157.44-21.4 155.24-21.4L155.24-21.4Q151.84-21.4 151.84-19.3L151.84-19.3Q151.84-18.2 152.91-17.7 153.99-17.2 157.89-16.45L157.89-16.45Q163.54-15.35 165.81-13.53 168.09-11.7 168.09-8.25L168.09-8.25Q168.09-3.75 164.34-1.35L164.34-1.35Q161.04 0.7 155.59 0.7L155.59 0.7Q148.69 0.7 145.39-2.55L145.39-2.55Q143.79-4.15 143.31-5.08 142.84-6 142.69-8.1L142.69-8.1 151.04-8.1Q151.24-6.3 152.26-5.58 153.29-4.85 155.69-4.85L155.69-4.85Q159.69-4.85 159.69-7.5L159.69-7.5Q159.69-8.65 158.74-9.18 157.79-9.7 154.24-10.5L154.24-10.5Q148.69-11.7 146.69-12.8L146.69-12.8Q143.49-14.6 143.49-18.6L143.49-18.6Q143.49-22.5 146.59-24.58 149.69-26.65 155.39-26.65L155.39-26.65Q162.44-26.65 165.44-23.3L165.44-23.3Q167.24-21.35 167.44-18.65ZM190.08-7.95L198.08-7.95Q197.48-5.65 195.78-3.7L195.78-3.7Q191.93 0.7 185.13 0.7L185.13 0.7Q178.98 0.7 175.18-2.7L175.18-2.7Q170.93-6.5 170.93-12.75L170.93-12.75Q170.93-19.3 175.33-23.25L175.33-23.25Q179.13-26.65 184.78-26.65L184.78-26.65Q191.63-26.65 195.33-22.15L195.33-22.15Q198.58-18.2 198.58-11.8L198.58-11.8Q198.58-11.35 198.58-11L198.58-11 179.28-11Q179.38-8.2 180.93-6.63 182.48-5.05 185.13-5.05L185.13-5.05Q188.38-5.05 190.08-7.95L190.08-7.95ZM179.38-15.85L190.23-15.85Q189.58-20.9 184.88-20.9L184.88-20.9Q180.13-20.9 179.38-15.85L179.38-15.85Z" opacity="1" transform="matrix(1,0,0,1,0,0)" fill="#ff6f3c" class="wordmark-text-0" data-fill-palette-color="primary" id="text-0"></path></svg></g></svg></g></svg></g></svg></g><g><svg viewBox="0 0 124.97835738693465 124.97835738693466" height="124.97835738693466" width="124.97835738693465"><g><svg></svg></g><g id="icon-0"><svg viewBox="0 0 124.97835738693465 124.97835738693466" height="124.97835738693466" width="124.97835738693465"><g><path transform="scale(1.24978,1.24978)" d="M30 100c-16.569 0-30-13.431-30-30v-40c0-16.569 13.431-30 30-30h40c16.569 0 30 13.431 30 30v40c0 16.569-13.431 30-30 30z" fill="#ff6f3c" fill-rule="nonzero" stroke="none" stroke-width="1" stroke-linecap="butt" stroke-linejoin="miter" stroke-miterlimit="10" stroke-dasharray="" stroke-dashoffset="0" font-family="none" font-weight="none" font-size="none" text-anchor="none" style="mix-blend-mode: normal" data-fill-palette-color="accent"></path></g><g transform="matrix(1,0,0,1,24.995671477386928,33.09033878352822)"><svg viewBox="0 0 74.98701443216079 58.797679819878226" height="58.797679819878226" width="74.98701443216079"><g><svg xmlns="http://www.w3.org/2000/svg" xmlns:xlink="http://www.w3.org/1999/xlink" version="1.1" x="0" y="0" viewBox="3.751 6.395 24.497999999999998 19.209" enable-background="new 0 0 32 32" xml:space="preserve" height="58.797679819878226" width="74.98701443216079" class="icon-dxe-0" data-fill-palette-color="quaternary" id="dxe-0"><path d="M23.822 19.992S25.724 20.334 24.121 18.123C22.767 16.257 18.859 15.019 18.859 15.019L14.647 6.79 12.177 6.395 13.15 11.844 9.741 10.61 9.272 7.773 7.508 6.803S7.012 9.545 7.359 12.074C7.359 12.074 14.465 18.5 23.822 19.992M3.751 23.606V25.604H28.249V23.606zM14.5 18.44A0.75 0.75 0 1 0 16 18.44 0.75 0.75 0 0 0 14.5 18.44" fill="#f5f5f5" data-fill-palette-color="quaternary"></path></svg></g></svg></g></svg></g></svg></g></svg></g><defs></defs></svg><rect width="395.52" height="91.22760209285472" fill="none" stroke="none" visibility="hidden"></rect></g></svg></g></svg>